<svg width="287" height="276" viewBox="0 0 287 276" fill="none" xmlns="http://www.w3.org/2000/svg">
<path d="M115.333 63.8674L109.998 102.969L171.656 111.382L176.991 72.2806L115.333 63.8674Z" fill="#EBEBEB"/>
<path d="M112.996 63.8486C115.162 66.5816 117.389 69.1984 119.576 71.8835C121.762 74.5686 124.017 77.1649 126.258 79.7749C128.588 82.5078 130.938 85.2407 133.281 87.9122C133.357 87.9942 133.418 88.083 133.493 88.1718C135.575 90.5495 137.663 92.9249 139.758 95.298L140.066 95.6396L140.448 95.3936C143.099 93.6673 145.746 91.9319 148.388 90.1874C148.482 90.133 148.573 90.0737 148.661 90.0097C151.663 88.042 154.651 86.0538 157.625 84.0451C160.467 82.132 163.323 80.1848 166.159 78.2376C168.994 76.2904 171.836 74.3021 174.651 72.2593C171.727 73.94 168.83 75.7233 165.926 77.4587C163.023 79.1941 160.126 81.0047 157.236 82.8221C154.02 84.8217 150.804 86.8555 147.588 88.9234C145.179 90.4538 142.769 91.9934 140.36 93.5421C138.467 91.4104 136.561 89.265 134.648 87.1538C132.106 84.3207 129.553 81.5012 126.989 78.6953C124.684 76.181 122.372 73.6758 120.054 71.1797C117.669 68.7474 115.36 66.2536 112.996 63.8486Z" fill="white"/>
<path d="M133.002 89.8057C133.026 89.8291 133.049 89.8542 133.07 89.8808L133.931 90.8373C135.298 92.3541 136.712 93.8163 138.154 95.2511C139.916 97.0138 141.727 98.7287 143.551 100.43C145.375 102.131 147.234 103.771 149.14 105.383C151.046 106.996 152.966 108.595 154.975 110.084C153.328 108.192 151.559 106.401 149.83 104.618C148.101 102.835 146.25 101.141 144.439 99.4461C142.629 97.7517 140.743 96.0914 138.844 94.4722C137.334 93.1808 135.79 91.91 134.198 90.6939C133.833 90.4069 133.464 90.1268 133.091 89.8535L133.002 89.8057Z" fill="white"/>
<path d="M130.002 101.722C132.345 100.82 134.634 99.8024 136.889 98.7571C139.144 97.7117 141.378 96.5912 143.605 95.4707C145.833 94.3502 148.026 93.1614 150.192 91.9316C151.961 90.934 153.71 89.8819 155.425 88.816C155.801 88.5837 156.163 88.3514 156.525 88.1328L156.607 88.0781C156.574 88.0868 156.538 88.0868 156.505 88.0781L155.207 88.6042C153.355 89.3489 151.538 90.1688 149.741 91.0024C147.479 92.0546 145.252 93.1614 143.031 94.2956C140.811 95.4297 138.618 96.6049 136.445 97.8416C134.272 99.0782 132.099 100.335 130.002 101.722Z" fill="white"/>
<path d="M164.991 7.28457L113.998 20.2256L122.205 52.5629L173.197 39.6219L164.991 7.28457Z" fill="#EBEBEB"/>
<path d="M117.998 20.21C120.56 21.6585 123.136 23.0113 125.705 24.4188C128.274 25.8262 130.857 27.1517 133.439 28.5182C136.131 29.9256 138.83 31.2989 141.529 32.6722L141.775 32.8089L148.942 36.4095L149.29 36.5804L149.516 36.2661C151.046 34.0729 152.563 31.8729 154.087 29.6728C154.143 29.5982 154.195 29.5206 154.244 29.4405C155.975 26.9536 157.687 24.4484 159.382 21.9249C161.008 19.5268 162.627 17.0945 164.233 14.669C165.838 12.2435 167.437 9.78385 169.015 7.29688C167.253 9.53789 165.551 11.8541 163.823 14.1292C162.094 16.4044 160.406 18.7479 158.712 21.0846C156.826 23.6763 154.947 26.2908 153.075 28.9281C151.677 30.8913 150.276 32.8613 148.873 34.8381C146.687 33.7449 144.514 32.6859 142.349 31.6337C139.452 30.2126 136.555 28.8097 133.658 27.425C131.062 26.1883 128.458 24.9585 125.855 23.756C123.252 22.5535 120.622 21.3442 117.998 20.21Z" fill="white"/>
<path d="M131.996 29.6465C132.02 29.6627 132.045 29.6765 132.071 29.6875L133.048 30.1657C134.602 30.9173 136.171 31.6233 137.756 32.2838C139.696 33.1173 141.657 33.8825 143.625 34.6341C145.592 35.3857 147.574 36.0894 149.576 36.7521C151.578 37.4149 153.593 38.0571 155.643 38.59C153.75 37.6267 151.824 36.7726 149.89 35.9459C147.956 35.1192 145.975 34.354 144.014 33.6024C142.053 32.8509 140.058 32.1403 138.056 31.4776C136.464 30.9446 134.852 30.4322 133.219 29.9813C132.843 29.872 132.468 29.7763 132.085 29.6738L131.996 29.6465Z" fill="white"/>
<path d="M135 51.5163C136.551 50.0747 138.02 48.5511 139.455 47.007C140.889 45.4629 142.297 43.8914 143.684 42.3132C145.071 40.7349 146.417 39.0951 147.722 37.4485C148.795 36.0821 149.847 34.7156 150.844 33.3491L151.48 32.4541C151.48 32.4541 151.48 32.4062 151.527 32.3857L151.459 32.4472C151.172 32.7205 150.885 32.987 150.605 33.2671C149.389 34.4355 148.221 35.6516 147.066 36.8883C145.624 38.4255 144.231 40.0038 142.85 41.5889C141.47 43.174 140.117 44.8001 138.812 46.4536C137.507 48.107 136.202 49.7399 135 51.5163Z" fill="white"/>
<path d="M167.247 147.516L114.996 153.645L118.883 186.78L171.134 180.651L167.247 147.516Z" fill="#EBEBEB"/>
<path d="M117.004 153.661C119.354 155.43 121.732 157.111 124.089 158.853C126.446 160.596 128.838 162.235 131.222 163.903C133.607 165.57 136.203 167.367 138.697 169.081L138.922 169.245C141.122 170.753 143.331 172.259 145.549 173.762L145.877 173.973L146.137 173.693C147.959 171.721 149.758 169.742 151.535 167.756C151.604 167.693 151.668 167.624 151.726 167.551C153.762 165.31 155.789 163.051 157.807 160.773C159.733 158.614 161.653 156.414 163.566 154.221C165.479 152.028 167.386 149.801 169.258 147.532C167.208 149.527 165.227 151.632 163.211 153.634C161.196 155.635 159.214 157.733 157.226 159.858C155.017 162.172 152.815 164.515 150.619 166.888C148.973 168.651 147.333 170.427 145.686 172.197C143.677 170.831 141.669 169.498 139.66 168.173C136.982 166.383 134.294 164.611 131.598 162.857C129.193 161.286 126.776 159.733 124.349 158.198C121.869 156.688 119.45 155.13 117.004 153.661Z" fill="white"/>
<path d="M132 167.676L132.068 167.724C132.369 167.929 132.676 168.134 132.977 168.325C134.419 169.281 135.881 170.183 137.37 171.058C139.181 172.13 141.026 173.148 142.877 174.16C144.729 175.171 146.601 176.114 148.5 177.036C150.4 177.958 152.306 178.86 154.267 179.653C152.524 178.45 150.721 177.35 148.91 176.285C147.1 175.219 145.241 174.187 143.396 173.183C141.552 172.178 139.666 171.215 137.773 170.293C136.263 169.555 134.726 168.837 133.168 168.175C132.813 168.02 132.451 167.869 132.082 167.724L132 167.676Z" fill="white"/>
<path d="M134 185.727C135.729 184.497 137.416 183.178 139.008 181.846C140.6 180.513 142.233 179.113 143.791 177.746C145.349 176.38 146.92 174.925 148.437 173.456C149.673 172.267 150.89 171.057 152.065 169.8L152.816 168.994C152.836 168.975 152.854 168.955 152.871 168.933C152.849 168.953 152.824 168.97 152.796 168.98L151.846 169.664C150.48 170.668 149.168 171.713 147.856 172.786C146.223 174.153 144.638 175.519 143.073 176.885C141.509 178.252 139.944 179.707 138.427 181.176C136.911 182.645 135.421 184.148 134 185.727Z" fill="white"/>
<path d="M152.43 8.67452C147.176 8.77701 139.523 8.98198 134.338 8.98198H134.037V8.67452L133.996 1.02912V0.6875H134.338C139.756 0.6875 147.278 0.742159 152.621 0.844644C152.621 3.16765 152.471 6.31053 152.43 8.67452ZM152.43 8.67452C152.361 6.44034 152.293 3.20864 152.245 1.02912L152.43 1.22042C147.203 1.30924 139.646 1.35707 134.338 1.37074L134.679 1.02912L134.645 8.67452L134.338 8.3739C139.455 8.3739 147.244 8.57204 152.43 8.67452Z" fill="#EBEBEB"/>
<path d="M134.191 186.473C139.445 186.37 147.098 186.165 152.283 186.165H152.584V186.473L152.625 194.118V194.46H152.283C146.865 194.46 139.343 194.405 134 194.302C134 191.979 134.15 188.836 134.191 186.473ZM134.191 186.473C134.26 188.707 134.328 191.938 134.376 194.118L134.191 193.927C139.418 193.838 146.975 193.79 152.283 193.776L151.942 194.118L151.976 186.473L152.283 186.773C147.166 186.773 139.377 186.575 134.191 186.473Z" fill="#EBEBEB"/>
<path d="M134.215 186.473C139.469 186.37 147.121 186.165 152.307 186.165H152.614V186.473V194.118V194.46H152.273C146.861 194.46 139.332 194.405 133.996 194.302C133.996 191.979 134.14 188.836 134.181 186.473H134.215ZM134.215 186.473C134.283 188.707 134.358 191.938 134.406 194.118L134.215 193.927C139.448 193.838 146.998 193.79 152.307 193.776L151.965 194.118L152.006 186.473L152.307 186.773C147.196 186.773 139.4 186.575 134.215 186.473Z" fill="#EBEBEB"/>
<path d="M134.225 176.817C139.48 176.715 147.132 176.51 152.318 176.51H152.625V176.817V184.463V184.804H152.277C146.865 184.804 139.336 184.75 134 184.647C134 182.324 134.143 179.181 134.184 176.817H134.225ZM134.225 176.817C134.294 179.051 134.369 182.283 134.417 184.463L134.225 184.271C139.459 184.182 147.009 184.135 152.318 184.121L151.983 184.463V176.817L152.283 177.118C147.173 177.118 139.377 176.92 134.191 176.817H134.225Z" fill="#EBEBEB"/>
<path d="M0 274.574C91.9362 274.158 195.064 274.158 287 274.574C195.064 274.998 91.9362 274.991 0 274.574Z" fill="#263238"/>
<path d="M108.321 117.07C111.324 120.744 114.737 124.061 118.496 126.957C114.485 114.798 120.802 90.7175 120.819 94.3549C120.895 111.737 127.322 132.18 131.087 133.943C131.087 133.943 131.087 133.943 131.155 133.943C141.491 137.674 151.784 136.928 160.831 134.198C160.831 134.198 160.831 134.198 160.831 134.138C155.294 120.165 161.068 95.542 161.289 97.17C163.773 114.603 174.168 126.762 176.331 127.211C186.014 121.318 191.932 114.62 190.957 113.594C183.902 106.132 180.036 90.0391 177.051 73.2678C174.084 56.7338 174.075 41.6243 168.199 26.1501C162.807 11.9903 147.129 6.08043 136.573 10.3877C108.838 21.7156 104.073 111.923 108.321 117.07Z" fill="#263238"/>
<path d="M138.428 9.7666C136.124 10.368 133.978 11.4614 132.137 12.9717C130.262 14.4389 128.525 16.0736 126.947 17.8555C123.88 21.4905 121.209 25.4413 118.977 29.6413C114.373 37.9761 111.346 47.091 109.133 56.2992C107.058 65.5538 105.776 74.9684 105.301 84.4409C105.148 86.8065 105.131 89.1721 105.046 91.5378L105.004 98.6347L105.241 105.715L105.682 112.786V105.706L105.809 98.6347L106.072 91.5717C106.233 89.223 106.318 86.8658 106.539 84.5257C107.203 75.1423 108.592 65.8245 110.693 56.6553C112.69 47.4782 115.823 38.5859 120.02 30.184C122.113 25.983 124.627 22.0057 127.524 18.3134C128.991 16.4728 130.623 14.77 132.399 13.226C133.298 12.4742 134.25 11.7884 135.248 11.1741C136.232 10.5495 137.304 10.0751 138.428 9.7666Z" fill="#263238"/>
<path d="M192.486 111.335C190.653 107.682 189.006 103.938 187.552 100.118C186.042 96.3192 184.677 92.4867 183.499 88.5694C182.32 84.6521 181.26 80.7348 180.446 76.7582C179.632 72.7816 178.954 68.7201 178.208 64.7011C176.622 56.6631 175.045 48.5911 172.993 40.6632C171.942 36.6951 170.823 32.7439 169.441 28.869C168.744 26.9323 167.94 25.0357 167.033 23.1881C166.199 21.3003 164.984 19.6057 163.463 18.2109C164.845 19.7101 165.927 21.46 166.651 23.3662C167.44 25.2444 168.127 27.1633 168.711 29.1149C169.932 33.0067 170.916 36.9749 171.815 40.9854C173.612 48.9557 175.206 56.9768 176.656 65.0233C177.453 69.0423 178.174 73.0529 179.047 77.0889C179.916 81.1062 181.018 85.0697 182.346 88.9594C184.935 96.7517 188.334 104.251 192.486 111.335Z" fill="#263238"/>
<path d="M211.156 275.301H144.816C144.251 273.09 143.686 270.875 143.121 268.653C142.753 267.195 142.383 265.739 142.01 264.286C142.01 264.193 141.968 264.108 141.942 264.015L140.492 258.317C140.441 258.131 140.39 257.944 140.348 257.758C139.983 256.308 139.61 254.858 139.254 253.425C138.327 249.824 137.417 246.26 136.524 242.733C136.185 241.393 135.846 240.045 135.498 238.722C135.489 238.659 135.475 238.597 135.456 238.536C135.244 237.688 135.023 236.84 134.811 235.992C133.429 230.582 132.098 225.334 130.826 220.314C130.674 219.721 130.521 219.153 130.368 218.576C129.249 214.159 128.181 209.953 127.172 206.002L126.748 204.306C126.502 203.331 126.265 202.381 126.019 201.449C125.798 200.601 125.586 199.77 125.383 198.956C124.772 196.556 124.187 194.301 123.687 192.173C123.602 191.825 123.509 191.494 123.433 191.164C122.669 188.205 122 185.551 121.415 183.261C121.304 182.854 121.211 182.464 121.109 182.083C120.897 181.235 120.694 180.455 120.516 179.734C120.423 179.37 120.338 179.022 120.244 178.691L118.998 173.799H182.2C182.2 173.799 197.284 225.792 211.156 275.301Z" fill="#37474F"/>
<path d="M155.318 275.291H153.452C152.322 270.843 151.214 266.394 150.129 261.946L148.857 256.858C147.907 253.02 146.952 249.171 145.991 245.31C145.991 245.14 145.915 244.962 145.872 244.793C141.328 226.385 136.868 207.934 132.832 189.408C132.781 189.187 132.73 188.967 132.688 188.747C132.688 188.722 132.697 188.698 132.715 188.681C132.732 188.663 132.756 188.653 132.781 188.653C132.806 188.653 132.829 188.663 132.847 188.681C132.864 188.698 132.874 188.722 132.874 188.747L132.933 188.967C138.021 207.121 142.777 225.427 147.348 243.724C147.441 244.038 147.517 244.36 147.594 244.674C147.975 246.183 148.348 247.675 148.73 249.176C149.255 251.304 149.798 253.416 150.332 255.561C152.017 262.124 153.679 268.7 155.318 275.291Z" fill="#263238"/>
<path d="M180.148 173.835L171.169 218.773L170.762 220.783L170.126 223.979L169.109 229.067L168.168 233.806V234.018L167.99 234.866L159.943 275.192H144.816C144.251 272.982 143.686 270.766 143.121 268.545C142.753 267.086 142.383 265.631 142.01 264.178C142.01 264.085 141.968 264 141.942 263.907C141.45 262.007 140.976 260.108 140.492 258.209C140.441 258.022 140.39 257.836 140.348 257.649C139.983 256.199 139.61 254.749 139.254 253.316C138.327 249.716 137.417 246.152 136.524 242.624C136.185 241.285 135.846 239.937 135.498 238.614C135.489 238.551 135.475 238.488 135.456 238.427C135.244 237.579 135.023 236.732 134.811 235.884C133.429 230.474 132.098 225.226 130.826 220.206L130.368 218.468C129.249 214.05 128.181 209.845 127.172 205.894C127.028 205.325 126.892 204.766 126.748 204.198C126.502 203.223 126.265 202.273 126.019 201.34C125.798 200.492 125.586 199.661 125.383 198.848C124.772 196.448 124.187 194.193 123.687 192.064C123.602 191.717 123.509 191.386 123.433 191.055C122.669 188.096 122 185.442 121.415 183.153C121.304 182.746 121.211 182.356 121.109 181.974C120.897 181.126 120.694 180.346 120.516 179.626C120.423 179.261 120.338 178.913 120.244 178.583L118.998 173.69L180.148 173.835Z" fill="#263238"/>
<path d="M180.17 173.808C180.17 174.164 179.907 177.911 179.322 183.635C178.115 195.674 176.132 207.623 173.387 219.407C172.691 222.282 171.928 225.122 171.097 227.886C170.538 229.803 169.927 231.702 169.274 233.5L169.223 233.661L168.121 234.076C162.16 236.538 156.397 239.454 150.883 242.801C150.883 242.801 150.883 242.928 150.883 243.157C150.841 244.412 150.663 248.914 150.409 255.511C150.324 257.478 150.248 259.632 150.154 261.938C150.002 265.966 149.824 270.476 149.646 275.284H86.1211C86.969 264.609 87.766 253.773 88.58 243.267C88.58 243.267 82.6447 226.64 83.2892 218.237C84.8917 197.888 94.015 173.816 94.015 173.816L180.17 173.808Z" fill="#37474F"/>
<path d="M158.487 218.477L158.563 213.39C158.614 210.286 158.826 207.183 158.945 204.063C159.216 197.034 159.53 189.979 160.123 182.967C160.123 182.797 160.42 182.797 160.428 182.967C160.53 185.757 160.589 188.538 160.581 191.327C160.572 194.117 160.666 196.906 160.657 199.688C160.657 205.216 160.657 210.71 160.428 216.272C160.352 218.401 159.58 222.309 162.65 222.547C165.092 222.733 166.508 220.164 166.94 218.121C167.34 215.571 167.533 212.994 167.517 210.413C167.624 207.587 167.684 204.781 167.695 201.994C167.695 195.88 167.839 189.784 168 183.679C168 183.501 168.28 183.518 168.305 183.679C169.007 189.837 169.401 196.026 169.484 202.223C169.484 205.19 169.484 208.158 169.357 211.134C169.263 213.907 169.314 216.866 168.458 219.537C167.788 221.631 166.27 223.641 164.049 224.192C164.004 224.188 163.958 224.188 163.913 224.192C163.943 224.208 163.969 224.231 163.988 224.259C164.007 224.287 164.019 224.319 164.023 224.353C164.117 225.328 164.278 226.303 164.303 227.287C164.329 228.27 164.303 229.245 164.218 230.212C164.176 231.206 164.057 232.195 163.862 233.171C163.776 233.639 163.66 234.1 163.515 234.553C163.362 235.028 163.108 235.401 162.913 235.867C162.896 235.903 162.868 235.932 162.834 235.951C162.799 235.969 162.759 235.975 162.72 235.968C162.682 235.961 162.646 235.942 162.62 235.913C162.593 235.884 162.577 235.847 162.574 235.808C162.574 235.647 162.574 235.486 162.523 235.333C162.527 235.305 162.527 235.276 162.523 235.248C162.486 234.967 162.467 234.684 162.463 234.4C162.463 233.926 162.514 233.451 162.548 232.976C162.624 232.026 162.752 231.068 162.879 230.127C163.006 229.186 163.074 228.228 163.184 227.278C163.294 226.328 163.481 225.336 163.566 224.353C163.575 224.316 163.596 224.284 163.625 224.26C162.75 224.423 161.845 224.314 161.034 223.947C160.223 223.58 159.544 222.973 159.089 222.208C158.573 221.036 158.366 219.751 158.487 218.477Z" fill="#263238"/>
<path d="M145.475 245.107C147.469 243.581 149.568 242.199 151.758 240.969C154.061 239.575 156.455 238.334 158.922 237.256C163.755 235.161 168.741 233.728 173.727 232.075C173.871 232.024 173.973 232.279 173.828 232.329C168.995 234.254 164.366 236.806 159.702 239.113C157.405 240.24 155.081 241.309 152.741 242.343C150.401 243.378 148.061 244.582 145.661 245.463C145.475 245.506 145.331 245.226 145.475 245.107Z" fill="#263238"/>
<path d="M107.766 203.005C111.158 203.005 121.205 203.132 126.42 198.248C128.624 196.18 129.811 193.161 130.769 190.405C131.862 187.294 132.746 184.113 133.415 180.883C133.415 180.722 133.678 180.782 133.686 180.926C133.762 184.587 133.291 188.24 132.287 191.762C131.439 194.738 130.362 198.07 127.954 200.165C125.546 202.259 121.968 203.141 118.721 203.556C115.075 203.98 111.39 203.929 107.758 203.404C107.705 203.402 107.654 203.38 107.618 203.342C107.581 203.304 107.561 203.253 107.563 203.2C107.564 203.147 107.586 203.097 107.624 203.06C107.662 203.024 107.713 203.004 107.766 203.005Z" fill="#263238"/>
<path d="M189.17 202.527C187.644 202.628 183.125 203.103 180.42 198.423C179.276 196.43 178.521 193.463 177.876 190.749C177.139 187.68 176.528 184.543 175.969 181.338C175.969 181.185 175.842 181.244 175.85 181.389C176.087 184.997 176.566 188.586 177.283 192.131C177.876 195.074 178.631 198.355 179.869 200.364C180.332 201.169 180.969 201.859 181.734 202.386C182.498 202.913 183.37 203.262 184.287 203.408C185.944 203.713 187.655 203.534 189.213 202.891C189.306 202.849 189.281 202.518 189.17 202.527Z" fill="#263238"/>
<path d="M103.189 179.176C103.104 179.489 94.8369 210.65 95.2184 218.179C95.6 225.708 100.018 240.945 100.034 241.072C100.051 241.199 99.2459 254.545 98.0504 275.276H96.4394L98.415 241.259C98.2284 240.131 93.972 225.657 93.5989 218.281C93.1919 210.463 101.23 180.024 101.612 178.735C101.706 178.576 101.849 178.453 102.019 178.383C102.19 178.313 102.379 178.3 102.557 178.347C102.735 178.394 102.893 178.498 103.007 178.643C103.121 178.788 103.185 178.966 103.189 179.15V179.176Z" fill="#263238"/>
<path d="M159.495 83.5482C192.08 112.266 222.35 143.749 224.868 160.003C228.362 182.472 214.592 188.874 208.394 189.001C191.503 189.357 160.063 121.263 149.092 95.2492C138.451 69.9988 152.339 77.2823 159.495 83.5482Z" fill="#009247"/>
<path d="M181.817 173.813L177.272 145.256C177.272 145.256 188.583 133.555 182.732 121.294C179.782 115.079 159.695 84.8347 148.969 77.2036C138.905 70.0643 126.975 75.9911 122.506 83.7154C111.229 103.209 100.52 125.627 94 173.838L181.817 173.813Z" fill="#009247"/>
<path d="M163.887 141.55C159.309 142.045 154.774 142.882 150.321 144.051C148.116 144.662 145.962 145.374 143.809 146.129C142.74 146.502 141.655 146.841 140.57 147.18C139.445 147.562 138.277 147.807 137.093 147.909C137.077 147.915 137.062 147.926 137.051 147.94C137.041 147.955 137.035 147.972 137.035 147.99C137.035 148.008 137.041 148.025 137.051 148.04C137.062 148.054 137.077 148.065 137.093 148.07C138.226 148.106 139.359 148.063 140.485 147.943C141.565 147.793 142.633 147.569 143.682 147.273C145.92 146.671 148.125 145.976 150.363 145.357C154.857 144.102 159.359 142.813 163.929 141.923C164.167 141.881 164.099 141.525 163.887 141.55Z" fill="#263238"/>
<path d="M175.265 145.391C171.493 145.072 167.705 144.964 163.92 145.069C162.021 145.128 160.147 145.298 158.265 145.518C157.366 145.629 156.467 145.747 155.569 145.883C154.67 146.019 153.618 146.307 152.635 146.434C152.533 146.434 152.533 146.612 152.635 146.595C153.568 146.502 154.517 146.595 155.458 146.519L158.282 146.392C160.173 146.307 162.064 146.239 163.946 146.137C167.727 145.934 171.484 145.773 175.265 145.705C175.301 145.697 175.332 145.677 175.355 145.648C175.377 145.62 175.39 145.584 175.39 145.548C175.39 145.512 175.377 145.476 175.355 145.448C175.332 145.419 175.301 145.399 175.265 145.391Z" fill="#263238"/>
<path d="M121.409 80.756C91.037 104.582 61.208 145.764 61.0045 168.793C60.7841 191.525 68.7034 189.321 70.9503 189.143C84.6863 188.244 117.034 124.965 126.912 99.1724C136.671 73.5998 128.87 74.8632 121.409 80.756Z" fill="#009247"/>
<path d="M89.1719 171.411C90.7659 168.545 92.4024 165.713 93.9455 162.83L98.6768 154.224C101.797 148.475 104.968 142.752 108.004 136.952C111.039 131.153 114.168 125.421 117.152 119.604C118.662 116.705 120.131 113.785 121.562 110.846C123.045 107.929 124.394 104.953 125.801 101.977C123.636 108.168 121.128 114.234 118.289 120.147C115.508 126.082 112.481 131.907 109.445 137.715C106.41 143.524 103.128 149.204 99.7791 154.834C96.4299 160.464 92.9535 166.052 89.1719 171.411Z" fill="#263238"/>
<path d="M122.588 109.596C123.149 108.566 123.775 107.572 124.462 106.62C124.801 106.154 125.123 105.679 125.488 105.23C125.852 104.78 126.191 104.297 126.598 103.848C126.326 105.015 125.819 106.114 125.106 107.078C124.429 108.065 123.575 108.919 122.588 109.596Z" fill="#263238"/>
<path d="M215.378 126.734C213.784 116.059 210.595 101.178 206.746 98.1004C202.693 94.87 188.016 84.0678 183.793 82.6603C179.571 81.2528 160.748 74.3254 157.322 76.3519C154.583 77.9799 157.933 85.1955 166.895 88.5701C174.763 91.5377 178.833 94.3358 181.089 95.2854C183.344 96.2351 188.966 103.586 187.499 106.885C186.651 108.826 181.046 111.124 177.536 109.606C174.026 108.089 173.084 101.127 169.057 97.9394C165.029 94.7513 157.992 95.2007 157.602 97.0915C157.212 98.9823 159.552 99.8556 163.223 106.283C165.589 110.412 165.852 120.383 171.185 127.48C173.865 131.041 178.579 140.555 178.579 140.555L215.378 126.734Z" fill="#F3A398"/>
<path d="M165.291 95.0316C164.003 94.8536 162.79 94.3191 161.789 93.4885C161.472 93.2013 161.229 92.8414 161.081 92.4397C160.934 92.0381 160.886 91.6065 160.941 91.1822C160.948 90.8693 161.065 90.5689 161.272 90.3343C161.34 90.2834 161.272 90.1986 161.204 90.2665C161.107 90.418 161 90.5625 160.882 90.6989C160.804 90.8247 160.738 90.9582 160.687 91.0974C160.591 91.3695 160.545 91.6568 160.551 91.9453C160.579 92.6002 160.83 93.2259 161.264 93.7174C161.78 94.2473 162.413 94.6496 163.112 94.8925C163.811 95.1353 164.557 95.212 165.291 95.1164C165.35 95.1334 165.35 95.0401 165.291 95.0316Z" fill="#263238"/>
<path d="M206.741 98.1053C203.282 92.8059 194.489 83.2841 185.841 80.0705C179.999 77.8915 160.065 87.8627 160.692 91.6867C161.32 95.5107 164.737 95.4853 169.799 94.8239C171.639 94.5865 181.364 90.983 183.051 93.0094C185.476 95.9262 188.622 105.957 188.622 105.957L206.741 98.1053Z" fill="#F3A398"/>
<path d="M161.183 90.1704C163.616 86.0412 169.026 83.7943 174.427 82.0137C174.44 82.0185 174.451 82.0272 174.459 82.0385C174.467 82.0499 174.471 82.0634 174.471 82.0773C174.471 82.0911 174.467 82.1046 174.459 82.116C174.451 82.1274 174.44 82.136 174.427 82.1409C173.054 82.5987 164.252 86.7449 161.2 90.2298C161.208 90.2722 161.158 90.2043 161.183 90.1704Z" fill="#263238"/>
<path d="M206.736 98.0928C203.277 92.7935 194.484 83.2716 185.836 80.0581C179.994 77.879 164.274 90.5296 164.901 94.3536C165.529 98.1776 170.446 98.432 175.856 96.4818C177.603 95.8544 183.487 91.6488 185.132 93.6753C187.557 96.5921 193.467 103.85 193.467 103.85L206.736 98.0928Z" fill="#F3A398"/>
<path d="M190.088 99.3392C189.528 98.4913 189.342 98.2115 188.774 97.3891C188.205 96.5666 187.62 95.7441 187.001 94.9726C186.508 94.2436 185.891 93.6066 185.178 93.0902C184.445 92.6863 183.6 92.5316 182.77 92.6493C180.888 92.8443 179.201 94.0568 177.615 94.9895C175.843 96.0324 172.155 97.7282 169.323 97.4569C168.542 97.4253 167.776 97.2288 167.076 96.8803C166.547 96.6427 166.084 96.2788 165.728 95.8204C164.473 93.7516 165.982 91.352 167.534 89.6478C170.434 86.4766 174.317 84.1619 178.141 82.2456C179.074 81.7793 180.015 81.3299 180.964 80.889C182.009 80.3116 183.166 79.9646 184.356 79.8715C186.323 79.8291 189.571 81.7962 190.58 82.4152C190.656 82.4576 190.715 82.3304 190.639 82.288C189.418 81.5419 186.399 79.1169 183.22 79.3119C182.061 79.4985 180.944 79.8889 179.922 80.465C178.819 80.9483 177.734 81.474 176.657 82.0252C174.561 83.0857 172.548 84.3046 170.637 85.6711C168.729 86.9406 167.069 88.5467 165.736 90.4109C165.18 91.2418 164.859 92.2083 164.808 93.2072C164.757 94.2062 164.978 95.2002 165.448 96.0833C166.296 97.5162 168.187 97.8469 169.043 97.9402C169.873 98.0504 170.714 98.0504 171.544 97.9402C173.393 97.5018 175.209 96.9352 176.979 96.2444C178.675 95.5406 180.235 94.3621 181.999 93.8109C182.832 93.5239 183.745 93.5726 184.543 93.9466C185.27 94.4264 185.922 95.0123 186.476 95.6848C187.677 96.8376 188.767 98.1009 189.732 99.4579C190.028 99.831 190.291 99.7123 190.088 99.3392Z" fill="#263238"/>
<path d="M209.32 102.721C208.04 100.177 205.826 89.7566 203.775 86.5685C201.723 83.3804 192.387 72.3832 188.089 72.9088C182.687 73.5702 188.428 83.2617 191.302 87.2468C194.176 91.2319 193.769 98.0575 193.769 98.0575L209.32 102.721Z" fill="#F3A398"/>
<path d="M187.287 80.6827C188.304 81.9376 189.211 83.3367 190.102 84.6933C191.015 85.9524 191.837 87.2757 192.56 88.653C193.167 90.0642 193.539 91.5649 193.663 93.0959C193.739 93.8506 193.773 94.5967 193.79 95.3514C193.807 96.106 193.731 97.0471 193.79 97.8357C193.79 97.9205 193.654 97.9374 193.654 97.8357C193.535 96.3317 193.323 94.8365 193.018 93.3588C192.737 91.8231 192.267 90.328 191.619 88.9073C190.322 86.0838 188.448 83.5825 187.125 80.776C187.049 80.6234 187.21 80.5471 187.287 80.6827Z" fill="#263238"/>
<path d="M193.692 99.2002C194.065 101.795 193.319 104.423 192.387 106.831C191.909 108.047 191.343 109.226 190.691 110.359C190.028 111.477 189.291 112.551 188.486 113.572C186.936 115.518 185.637 117.652 184.62 119.923C183.659 122.257 182.987 124.7 182.619 127.198C182.402 124.604 182.69 121.992 183.467 119.507C184.311 117.022 185.57 114.697 187.189 112.631C188.73 110.664 190.066 108.545 191.174 106.306C192.285 104.042 193.404 101.752 193.692 99.2002Z" fill="#263238"/>
<path d="M206.838 188.232C196.29 186.808 189.396 169.172 177.356 138.206C175.237 132.763 202.793 99.2964 206.541 104.29C211.264 110.582 223.982 145.608 225.313 155.164C227.95 173.954 219.149 189.894 206.838 188.232Z" fill="#F3A398"/>
<path d="M183.715 155.452L217.707 122.427C217.707 122.427 227.365 150.848 226.457 162.761C225.55 174.674 221.37 188.249 207.057 188.995C196.323 189.555 183.715 155.452 183.715 155.452Z" fill="#009247"/>
<path d="M194.712 178.313C193.483 176.575 192.389 174.752 191.32 172.921C190.252 171.089 189.269 169.215 188.31 167.325C187.352 165.434 186.471 163.492 185.69 161.517C184.855 159.558 184.194 157.529 183.715 155.454C184.614 157.379 185.563 159.261 186.521 161.143L189.379 166.79C190.303 168.69 191.244 170.581 192.126 172.497C193.008 174.413 193.915 176.338 194.712 178.313Z" fill="#263238"/>
<path d="M191.027 161.226C192.672 159.412 194.486 157.733 196.233 156.029C197.979 154.324 199.76 152.637 201.558 150.941C205.136 147.6 208.745 144.288 212.385 141.004C213.386 140.105 214.389 139.215 215.395 138.333C216.481 137.392 217.685 136.586 218.787 135.637C218.805 135.628 218.826 135.625 218.846 135.629C218.867 135.633 218.885 135.643 218.898 135.659C218.912 135.674 218.92 135.694 218.921 135.714C218.923 135.735 218.917 135.755 218.906 135.772C218.058 136.62 217.286 137.561 216.438 138.418C215.59 139.274 214.658 140.173 213.75 141.038C211.981 142.734 210.2 144.415 208.409 146.083C204.822 149.423 201.227 152.756 197.539 155.986C195.453 157.809 193.409 159.708 191.222 161.404C191.198 161.43 191.165 161.445 191.13 161.447C191.095 161.449 191.061 161.436 191.035 161.413C191.009 161.389 190.994 161.356 190.992 161.321C190.991 161.286 191.003 161.252 191.027 161.226Z" fill="#263238"/>
<path d="M130.382 78.1352C130.628 79.831 137.793 91.7864 147.289 91.2098C152.775 90.8537 149.044 79.831 149.044 79.831L153.818 64.7724L135.614 50.8584C135.614 50.8584 130.289 77.3976 130.382 78.1352Z" fill="#F3A398"/>
<path d="M133.664 60.798C134.884 64.7463 136.903 68.4014 139.596 71.5361C142.288 74.6708 145.597 77.218 149.316 79.0193L153.827 64.8085L135.614 50.8945C135.614 50.8945 134.732 55.3629 133.664 60.798Z" fill="#263238"/>
<path d="M175.277 43.6606C175.819 69.5215 160.388 72.7689 154.808 72.8791C149.721 72.9809 132.492 72.6756 129.278 47.0013C126.065 21.327 137.927 12.8989 149.492 12.0595C161.057 11.2201 174.742 17.7913 175.277 43.6606Z" fill="#F3A398"/>
<path d="M169.231 41.586C168.658 41.4511 168.092 41.2869 167.535 41.0943C166.891 41.009 166.294 40.7105 165.839 40.2464C165.727 40.0769 165.675 39.8749 165.69 39.6723C165.705 39.4696 165.788 39.2779 165.924 39.1272C166.238 38.8697 166.614 38.7002 167.015 38.6361C167.416 38.5721 167.827 38.6157 168.205 38.7626C169.02 38.9455 169.738 39.4225 170.223 40.1022C170.321 40.2624 170.37 40.4473 170.367 40.6349C170.363 40.8225 170.305 41.005 170.201 41.161C170.097 41.317 169.95 41.4399 169.778 41.5152C169.606 41.5905 169.416 41.6151 169.231 41.586Z" fill="#263238"/>
<path d="M151.485 40.8243C152.08 40.7763 152.672 40.6942 153.258 40.5785C153.894 40.586 154.515 40.38 155.021 39.9934C155.158 39.8427 155.24 39.6509 155.255 39.4483C155.271 39.2457 155.218 39.0437 155.106 38.8742C154.835 38.5709 154.487 38.3463 154.099 38.224C153.711 38.1016 153.298 38.0861 152.901 38.1789C152.068 38.2302 151.286 38.5971 150.714 39.2049C150.591 39.3494 150.513 39.5262 150.489 39.7141C150.464 39.902 150.495 40.093 150.576 40.2641C150.658 40.4351 150.787 40.579 150.948 40.6784C151.109 40.7778 151.296 40.8285 151.485 40.8243Z" fill="#263238"/>
<path d="M154.707 47.6114C154.707 47.5436 154.572 47.6877 154.563 47.764C154.563 49.5192 154.199 51.5372 152.579 52.0035C152.528 52.0035 152.528 52.1053 152.579 52.1053C154.546 51.9442 154.962 49.3072 154.707 47.6114Z" fill="#263238"/>
<path d="M153.226 45.676C150.411 45.3114 149.894 50.9838 152.506 51.3145C155.117 51.6452 155.592 45.9728 153.226 45.676Z" fill="#263238"/>
<path d="M152.086 45.9202C151.56 46.2 151.026 46.7172 150.39 46.7681C149.754 46.8189 149.22 46.1321 148.822 45.5217C148.779 45.4623 148.728 45.5217 148.72 45.581C148.61 46.6663 148.923 47.811 150.077 48.0823C151.23 48.3536 151.967 47.4294 152.34 46.3865C152.442 46.0813 152.298 45.7675 152.086 45.9202Z" fill="#263238"/>
<path d="M165.338 47.7726C165.338 47.7047 165.465 47.8743 165.457 47.9421C165.228 49.6888 165.262 51.7322 166.797 52.4699C166.839 52.4699 166.797 52.5801 166.797 52.5632C164.855 52.1053 164.838 49.392 165.338 47.7726Z" fill="#263238"/>
<path d="M167.072 46.0755C169.912 46.1434 169.615 51.8158 166.944 51.7649C164.273 51.714 164.689 46.0247 167.072 46.0755Z" fill="#263238"/>
<path d="M168.248 46.5448C168.681 46.867 169.096 47.4435 169.622 47.5114C170.148 47.5792 170.741 46.9941 171.174 46.4345C171.216 46.3752 171.258 46.4345 171.258 46.5024C171.258 47.5877 170.792 48.6984 169.741 48.8426C168.689 48.9867 168.13 47.9947 167.935 46.9094C167.901 46.7059 168.045 46.4091 168.248 46.5448Z" fill="#263238"/>
<path d="M154.672 61.1335C155.036 61.5998 155.375 62.2188 156.003 62.3544C156.653 62.4311 157.311 62.3704 157.936 62.1764C157.995 62.1764 158.046 62.2273 158.004 62.2697C157.707 62.5799 157.333 62.8043 156.919 62.9192C156.506 63.0341 156.069 63.0353 155.655 62.9225C155.308 62.7827 155.011 62.5427 154.801 62.2331C154.591 61.9235 154.478 61.5584 154.477 61.1843C154.477 61.0826 154.621 61.0656 154.672 61.1335Z" fill="#263238"/>
<path d="M162.523 55.3488C162.523 55.3488 162.684 57.9942 162.583 59.2322C162.583 59.3509 162.269 59.3848 161.854 59.3763H161.803C160.725 59.4832 159.639 59.2932 158.661 58.8269C157.684 58.3606 156.852 57.6357 156.257 56.7308C156.181 56.6037 156.351 56.485 156.452 56.5698C157.948 57.7721 159.792 58.4591 161.709 58.5284C161.82 58.1977 161.285 54.0006 161.489 54.0006C162.442 54.157 163.369 54.4423 164.245 54.8485C164.084 49.3117 163.024 43.8259 162.947 38.34C162.939 38.2973 162.949 38.2531 162.974 38.2174C162.998 38.1816 163.036 38.1571 163.079 38.1492C163.121 38.1413 163.166 38.1507 163.201 38.1754C163.237 38.2 163.262 38.2379 163.27 38.2806C164.779 43.9276 165.109 50.2953 165.432 56.0017C165.508 56.7224 163.007 55.5947 162.523 55.3488Z" fill="#263238"/>
<path d="M129.889 46.4255C136.257 47.2734 141.386 28.1278 141.988 25.7707C141.692 27.2799 140.114 35.2502 140.666 35.6741C141.345 35.7901 142.038 35.7901 142.717 35.6741C142.884 34.7165 143.122 33.7726 143.43 32.8506C143.557 32.4182 143.43 33.8427 143.43 35.6148C143.803 35.6148 144.21 35.5215 144.651 35.4876C144.929 33.4286 145.479 31.4156 146.287 29.5014C146.601 28.7807 146.228 32.2147 146.448 35.3095C151.01 34.8686 157.581 34.3938 163.508 35.1908C165.102 35.4028 166.459 35.6487 167.654 35.9115C168.061 33.5544 168.214 30.9853 168.299 31.5618C168.529 33.0679 168.611 34.5929 168.544 36.115C169.189 36.2677 169.782 36.4118 170.317 36.5559C171.046 33.2491 170.359 27.6445 170.757 28.5518C171.918 31.3347 172.539 34.3127 172.589 37.3275C174.793 38.1754 175.345 38.7011 175.514 38.1246C175.802 37.0732 176.082 27.5089 169.96 19.42C163.313 10.6357 147.847 6.09102 137.011 16.0284C137.011 16.0284 128.871 19.5726 126.412 27.051C123.954 34.5295 126.2 45.9252 129.889 46.4255Z" fill="#263238"/>
<path d="M133.678 47.145C133.678 47.145 128.591 38.7169 124.784 40.489C120.977 42.2611 124.462 54.2164 128.65 56.0988C129.171 56.3765 129.743 56.546 130.331 56.597C130.919 56.6481 131.511 56.5797 132.072 56.3959C132.632 56.2122 133.15 55.9168 133.594 55.5277C134.038 55.1386 134.398 54.6637 134.653 54.1316L133.678 47.145Z" fill="#F3A398"/>
<path d="M125.854 43.8877C125.843 43.8921 125.833 43.8997 125.827 43.9095C125.82 43.9193 125.816 43.9309 125.816 43.9428C125.816 43.9547 125.82 43.9663 125.827 43.9761C125.833 43.9859 125.843 43.9935 125.854 43.9979C128.787 45.4224 130.186 48.3137 131.111 51.2814C130.263 50.1113 129.11 49.416 127.55 50.3826C127.465 50.4335 127.55 50.5606 127.617 50.5522C128.157 50.4181 128.724 50.4546 129.242 50.6566C129.76 50.8585 130.202 51.216 130.509 51.6799C131.015 52.4619 131.438 53.2945 131.772 54.1642C131.891 54.444 132.391 54.3338 132.306 54.0201C132.302 53.9948 132.302 53.969 132.306 53.9438C132.578 50.1537 129.949 44.5491 125.854 43.8877Z" fill="#263238"/>
<path d="M156.095 90.2912L141.749 134.653C141.18 135.942 141.749 137.061 143.08 137.146L166.355 138.672C167.069 138.665 167.766 138.456 168.367 138.069C168.967 137.682 169.445 137.132 169.746 136.485L184.067 92.1226C184.635 90.8254 184.067 89.7061 182.744 89.579L159.47 88.0527C158.753 88.0665 158.054 88.2844 157.457 88.6809C156.859 89.0773 156.387 89.6359 156.095 90.2912Z" fill="#37474F"/>
<path d="M158.862 90.4395L144.542 134.801C143.973 136.099 144.542 137.218 145.873 137.303L169.147 138.829C169.862 138.822 170.559 138.613 171.16 138.225C171.76 137.838 172.238 137.289 172.539 136.641L186.86 92.271C187.428 90.9822 186.86 89.863 185.537 89.7782L162.263 88.252C161.546 88.2554 160.846 88.4631 160.244 88.8506C159.642 89.2381 159.162 89.7893 158.862 90.4395Z" fill="#455A64"/>
<path d="M165.117 92.9182C165.084 93.3093 164.935 93.6817 164.69 93.9883C164.445 94.295 164.115 94.522 163.741 94.6408C163.367 94.7596 162.966 94.7647 162.589 94.6555C162.212 94.5464 161.875 94.3278 161.623 94.0275C161.37 93.7273 161.212 93.3588 161.168 92.9686C161.125 92.5785 161.198 92.1843 161.379 91.8359C161.56 91.4875 161.84 91.2005 162.184 91.0113C162.528 90.8221 162.92 90.7392 163.311 90.773C163.835 90.8183 164.319 91.0697 164.658 91.4719C164.997 91.8741 165.162 92.3943 165.117 92.9182Z" fill="#263238"/>
<path d="M67.7966 189.131C77.9714 190.53 90.6305 182.637 123.486 158.65C128.031 155.334 113.235 116.95 108.224 120.24C101.882 124.395 78.1579 141.87 76.5893 143.37C63.2943 155.996 60.9032 188.182 67.7966 189.131Z" fill="#F3A398"/>
<path d="M96.4688 131.842C96.4688 131.842 105.796 118.717 112.876 113.341C122.321 106.142 133.437 103.811 138.151 103.115C147.995 101.666 172.805 104.972 173.102 112.281C173.373 118.903 148.182 114.248 148.182 114.248C148.182 114.248 174.645 114.757 173.509 122.787C172.372 130.816 143.459 123.745 143.459 123.745C143.459 123.745 170.643 124.872 168.158 132.97C166.276 139.083 139.711 134.157 139.711 134.157C139.711 134.157 163.063 135.293 161.401 141.669C159.561 148.707 134.76 145.697 134.76 145.697C127.807 161.188 117.802 165.546 110.586 167.954C108.797 168.539 96.4688 131.842 96.4688 131.842Z" fill="#F3A398"/>
<path d="M139.03 113.49C142.142 113.431 145.288 113.363 148.357 113.583C151.426 113.804 154.564 114.143 157.633 114.652C161.659 115.244 165.605 116.294 169.393 117.781C162.474 115.635 151.376 114.66 148.272 114.431C145.169 114.202 142.083 113.829 138.945 113.583C138.937 113.6 138.954 113.49 139.03 113.49Z" fill="#263238"/>
<path d="M138.013 124.688C141.99 124.798 145.941 124.755 149.883 125.035C153.826 125.315 157.557 125.925 161.483 126.477C161.779 126.519 161.661 126.663 161.356 126.629C157.413 126.239 153.724 126.18 149.79 125.832C145.856 125.485 141.913 124.984 137.971 124.781C137.945 124.781 137.954 124.688 138.013 124.688Z" fill="#263238"/>
<path d="M135.434 134.088C141.522 133.935 147.618 134.936 153.587 136.004C153.884 136.063 153.706 136.233 153.401 136.199C147.372 135.444 142.658 134.817 135.442 134.3C135.324 134.325 135.307 134.088 135.434 134.088Z" fill="#263238"/>
<path d="M96.4519 126.622L109.399 173.799C109.399 173.799 74.6355 194.242 67.0044 188.841C59.3734 183.44 64.3421 156.188 73.0669 145.801C76.645 141.469 96.4519 126.622 96.4519 126.622Z" fill="#009247"/>
<path d="M96.8953 128.175L96.3865 126.624L96.5137 126.674C93.2323 129.354 89.9425 132.008 86.6951 134.713C83.4476 137.417 80.1917 140.114 77.1053 142.971C75.5414 144.355 74.0686 145.839 72.6963 147.414C71.3832 149.035 70.2116 150.765 69.1945 152.586C67.1774 156.296 65.7635 160.303 65.0059 164.457C65.3404 160.19 66.4919 156.028 68.3974 152.196C69.3549 150.27 70.5145 148.451 71.8569 146.77C73.2376 145.128 74.7246 143.579 76.3083 142.132C79.454 139.274 82.7523 136.595 86.0931 133.992C89.4338 131.389 92.8762 128.904 96.4204 126.573L96.5222 126.505V126.615L96.8953 128.175Z" fill="#263238"/>
<path d="M88.8591 138.354C89.6476 140.668 90.2496 143.059 90.9025 145.417C91.5554 147.774 92.1913 150.148 92.7933 152.53C93.9973 157.279 95.1759 162.035 96.2867 166.809C96.5919 168.115 96.8972 169.421 97.1346 170.735C97.372 172.049 97.567 173.575 97.8807 174.974C97.8835 174.985 97.8841 174.997 97.8824 175.008C97.8807 175.02 97.8768 175.031 97.8709 175.04C97.8589 175.06 97.8396 175.075 97.8171 175.08C97.7946 175.086 97.7708 175.082 97.751 175.07C97.7311 175.058 97.7168 175.039 97.7111 175.017C97.3974 173.855 96.9141 172.736 96.5749 171.574C96.2358 170.413 95.8882 169.175 95.5744 167.962C94.947 165.594 94.3308 163.222 93.726 160.848C92.5135 156.1 91.3265 151.343 90.2751 146.553C89.6815 143.856 89.0032 141.143 88.5793 138.413C88.5754 138.395 88.5751 138.376 88.5786 138.357C88.582 138.339 88.589 138.321 88.5993 138.305C88.6095 138.29 88.6227 138.276 88.6382 138.265C88.6537 138.255 88.6711 138.247 88.6895 138.243C88.7079 138.239 88.7268 138.239 88.7453 138.243C88.7638 138.246 88.7814 138.253 88.7971 138.263C88.8129 138.274 88.8265 138.287 88.8371 138.302C88.8477 138.318 88.8552 138.335 88.8591 138.354Z" fill="#263238"/>
<path d="M109.415 173.803C109.644 174.244 109.627 173.87 109.576 173.599C109.525 173.328 108.991 171.055 108.491 169.614C108.44 169.47 108.22 169.215 108.304 169.733C108.602 171.108 108.973 172.467 109.415 173.803Z" fill="#263238"/>
</svg>
